<svg width="16" height="16" viewBox="0 0 16 16" fill="none" xmlns="http://www.w3.org/2000/svg">
<path fill-rule="evenodd" clip-rule="evenodd" d="M4.10419 2.91333C3.77533 2.58447 3.24214 2.58447 2.91327 2.91333C2.58441 3.2422 2.58441 3.77539 2.91327 4.10425L6.80904 8.00002L2.91327 11.8958C2.58441 12.2247 2.58441 12.7578 2.91327 13.0867C3.24214 13.4156 3.77533 13.4156 4.10419 13.0867L7.99996 9.19094L11.8957 13.0867C12.2246 13.4156 12.7578 13.4156 13.0866 13.0867C13.4155 12.7578 13.4155 12.2247 13.0866 11.8958L9.19088 8.00002L13.0866 4.10425C13.4155 3.77539 13.4155 3.2422 13.0866 2.91333C12.7578 2.58447 12.2246 2.58447 11.8957 2.91333L7.99996 6.8091L4.10419 2.91333Z" fill="#8C8A97"/>
</svg>
