<svg width="16" height="16" viewBox="0 0 16 16" fill="none" xmlns="http://www.w3.org/2000/svg">
<path fill-rule="evenodd" clip-rule="evenodd" d="M5.36919 3.90475C5.36919 2.45182 6.54722 1.2738 8.00014 1.2738C9.45307 1.2738 10.6311 2.45182 10.6311 3.90475V4.91665H5.36919V3.90475ZM4.75939 6.13093C4.76027 6.13094 4.76116 6.13094 4.76205 6.13094C4.76294 6.13094 4.76383 6.13094 4.76471 6.13093H11.2356C11.2365 6.13094 11.2374 6.13094 11.2382 6.13094C11.2391 6.13094 11.24 6.13094 11.2409 6.13093H12.0476C12.6068 6.13093 13.0595 6.58363 13.0595 7.14284V13.619C13.0595 14.1782 12.6068 14.6309 12.0476 14.6309H3.95239C3.39318 14.6309 2.94048 14.1782 2.94048 13.619V7.14284C2.94048 6.58363 3.39318 6.13093 3.95239 6.13093H4.75939ZM4.15491 4.91665V3.90475C4.15491 1.78119 5.87659 0.0595093 8.00014 0.0595093C10.1237 0.0595093 11.8454 1.78119 11.8454 3.90475V4.91665H12.0476C13.2775 4.91665 14.2738 5.913 14.2738 7.14284V13.619C14.2738 14.8489 13.2775 15.8452 12.0476 15.8452H3.95239C2.72255 15.8452 1.7262 14.8489 1.7262 13.619V7.14284C1.7262 5.913 2.72255 4.91665 3.95239 4.91665H4.15491ZM8.85868 10.2277C8.78175 10.3046 8.69707 10.369 8.60715 10.421V12.0728C8.60715 12.4082 8.33532 12.68 8.00001 12.68C7.66469 12.68 7.39286 12.4082 7.39286 12.0728V10.421C7.30298 10.369 7.21833 10.3046 7.14142 10.2277C6.66721 9.75345 6.66721 8.98461 7.14142 8.5104C7.61563 8.03619 8.38447 8.03619 8.85868 8.5104C9.33289 8.98461 9.33289 9.75345 8.85868 10.2277Z" fill="#E0DEEA"/>
</svg>
